<svg xmlns="http://www.w3.org/2000/svg" xmlns:xlink="http://www.w3.org/1999/xlink" width="1920" zoomAndPan="magnify" viewBox="0 0 1440 809.999993" height="1080" preserveAspectRatio="xMidYMid meet" version="1.2"><g id="bda432e985"><path style=" stroke:none;fill-rule:nonzero;fill:#ffffff;fill-opacity:1;" d="M 939.75 810.75 C 626.5 810.75 313.625 810.75 0.75 810.75 C 0.75 540.75 0.75 270.75 0.75 0.75 C 480.75 0.75 960.75 0.75 1440.75 0.75 C 1440.75 270.75 1440.75 540.75 1440.75 810.75 C 1273.875 810.75 1107 810.75 939.75 810.75 M 381.109375 508.003906 C 381.210938 508.226562 381.371094 508.390625 381.6875 509.195312 C 381.699219 517.421875 381.722656 525.644531 381.710938 533.871094 C 381.679688 560.164062 381.632812 586.457031 381.304688 612.953125 C 381.132812 613.128906 381.042969 613.339844 381.003906 614.277344 C 381.246094 626.976562 381.335938 639.683594 381.808594 652.371094 C 381.992188 657.246094 382.652344 662.183594 383.785156 666.929688 C 387.648438 683.117188 395.617188 696.898438 408.628906 707.546875 C 416.101562 713.660156 424.496094 717.960938 433.722656 720.792969 C 447.386719 724.984375 461.566406 724.097656 475.535156 725.140625 C 481.1875 725.5625 486.929688 724.617188 492.632812 724.5625 C 503.628906 724.453125 514.566406 723.898438 525.183594 720.742188 C 537.183594 717.171875 547.226562 710.558594 554.671875 700.453125 C 563.730469 688.148438 568.484375 673.921875 572.285156 659.316406 C 573.128906 656.0625 574.210938 652.871094 575.183594 649.652344 C 575.515625 649.707031 575.851562 649.761719 576.183594 649.820312 C 576.867188 653.253906 577.671875 656.667969 578.207031 660.128906 C 580.289062 673.5625 583.554688 686.546875 590.019531 698.71875 C 594.761719 707.652344 602.050781 713.613281 610.582031 718.050781 C 619.96875 722.9375 630.464844 724.394531 640.902344 724.425781 C 696.773438 724.609375 752.644531 724.601562 808.511719 724.4375 C 822.164062 724.394531 835.878906 724.148438 849.449219 722.832031 C 859.714844 721.835938 870.046875 719.796875 879.917969 716.800781 C 902.390625 709.980469 921.53125 697.339844 938.09375 680.78125 C 942.488281 676.390625 947.027344 672.0625 950.835938 667.1875 C 958.078125 657.925781 964.894531 648.328125 971.773438 638.789062 C 974.59375 634.875 977.125 630.75 980.417969 625.765625 C 981.070312 628.195312 981.53125 629.40625 981.714844 630.660156 C 982.289062 634.667969 982.507812 638.746094 983.320312 642.703125 C 986.535156 658.367188 991.730469 673.152344 1001.152344 686.402344 C 1011.734375 701.28125 1025.933594 711.066406 1042.535156 717.785156 C 1056.109375 723.28125 1070.550781 724.3125 1084.886719 724.382812 C 1144.753906 724.675781 1204.625 724.625 1264.496094 724.410156 C 1275.972656 724.371094 1287.453125 723.140625 1298.914062 722.257812 C 1310.367188 721.375 1321.175781 717.851562 1331.527344 713.125 C 1349.367188 704.980469 1364.472656 693.210938 1377.265625 678.28125 C 1386.253906 667.789062 1393.773438 656.386719 1400.246094 644.257812 C 1411.460938 623.253906 1418.609375 600.914062 1421.21875 577.242188 C 1422.585938 564.847656 1423.460938 552.382812 1424.152344 539.929688 C 1424.464844 534.316406 1423.5625 528.652344 1423.578125 523.011719 C 1423.765625 442.8125 1424 362.617188 1424.257812 282.421875 C 1424.339844 257.160156 1424.859375 231.925781 1419.152344 206.996094 C 1415.898438 192.789062 1412.332031 178.824219 1405.308594 165.953125 C 1394.074219 145.363281 1378.703125 128.523438 1359.332031 115.339844 C 1347.570312 107.332031 1334.746094 101.699219 1321.234375 97.160156 C 1309.109375 93.085938 1296.742188 90.417969 1284.210938 88.660156 C 1273.464844 87.148438 1262.539062 86.734375 1251.675781 86.3125 C 1238.109375 85.785156 1224.523438 85.492188 1210.949219 85.535156 C 1169.875 85.65625 1128.800781 85.910156 1087.726562 86.296875 C 1079.574219 86.371094 1071.3125 86.574219 1063.296875 87.894531 C 1047.503906 90.5 1032.570312 95.503906 1019.945312 106.054688 C 1006.367188 117.402344 995.796875 130.855469 990.015625 147.683594 C 986.695312 157.347656 983.972656 167.214844 980.910156 176.96875 C 980.648438 177.796875 979.875 178.464844 979.339844 179.210938 C 978.660156 178.617188 977.828125 178.128906 977.335938 177.410156 C 975.472656 174.695312 973.851562 171.804688 971.902344 169.15625 C 965.214844 160.074219 958.976562 150.582031 951.515625 142.179688 C 944.371094 134.132812 936.105469 127.039062 927.992188 119.910156 C 916.027344 109.390625 902.117188 102.109375 887.320312 96.339844 C 868.394531 88.964844 848.8125 85.726562 828.542969 86.175781 C 819.894531 86.367188 811.238281 86.207031 802.585938 86.21875 C 788.335938 86.234375 774.085938 86.265625 759.496094 86.359375 C 759.273438 86.460938 759.109375 86.621094 758.300781 86.9375 C 748.785156 86.90625 739.269531 86.875 729.546875 86.554688 C 729.371094 86.382812 729.160156 86.292969 728.222656 86.253906 C 717.972656 86.242188 707.726562 86.234375 697.480469 86.222656 C 691.980469 86.214844 686.433594 86.664062 680.992188 86.109375 C 668.085938 84.796875 655.28125 85.261719 642.621094 87.804688 C 626.152344 91.109375 612.757812 99.976562 602.472656 112.957031 C 593.566406 124.203125 587.335938 137.101562 582.640625 150.722656 C 580.796875 156.078125 578.226562 161.183594 575.707031 167.066406 C 575.085938 165.691406 574.632812 165.097656 574.558594 164.460938 C 572.648438 148.261719 568.351562 132.84375 559.632812 118.886719 C 551.460938 105.804688 540.527344 96.136719 525.875 90.628906 C 513.699219 86.054688 500.984375 86.328125 488.390625 85.601562 C 481.972656 85.234375 475.480469 85.789062 469.046875 86.257812 C 461.566406 86.804688 454.042969 87.289062 446.664062 88.542969 C 428.355469 91.652344 413.75 101.460938 402.921875 116.078125 C 388.808594 135.132812 375.738281 154.964844 362.152344 174.417969 C 345.207031 198.683594 328.199219 222.914062 311.207031 247.148438 C 308.582031 250.890625 305.894531 254.589844 302.941406 258.722656 C 301.828125 257.398438 301.140625 256.664062 300.546875 255.859375 C 291.882812 244.148438 283.105469 232.515625 274.601562 220.683594 C 262.539062 203.902344 250.683594 186.96875 238.734375 170.105469 C 230.8125 158.925781 223.015625 147.65625 214.921875 136.605469 C 205.714844 124.039062 197.597656 110.527344 185.089844 100.707031 C 179.597656 96.394531 173.699219 92.835938 166.957031 90.683594 C 155.945312 87.167969 144.496094 87.433594 133.25 87.203125 C 117.367188 86.875 101.453125 88.042969 85.550781 88.433594 C 78.203125 88.613281 71.214844 90.289062 64.613281 93.316406 C 51.097656 99.515625 42.441406 110.460938 36.859375 123.785156 C 30.367188 139.296875 27.167969 155.785156 27.132812 172.476562 C 26.878906 297.203125 26.941406 421.933594 27.027344 546.664062 C 27.054688 583.734375 27.492188 620.804688 27.714844 657.875 C 27.773438 667.644531 30.675781 676.734375 34.835938 685.34375 C 43.824219 703.949219 59.699219 714.300781 78.847656 719.875 C 87.714844 722.457031 97.050781 723.378906 106.109375 725.335938 C 119.070312 728.136719 132.023438 726.527344 144.863281 725.023438 C 153.898438 723.964844 162.824219 721.546875 171.652344 719.191406 C 183.433594 716.042969 193.714844 710.09375 201.828125 700.828125 C 214.988281 685.792969 221.179688 668.113281 221.242188 648.246094 C 221.320312 623.25 221.234375 598.253906 221.28125 573.257812 C 221.324219 551.253906 221.460938 529.25 221.539062 507.246094 C 221.5625 500.953125 221.542969 494.664062 221.542969 488.371094 C 221.96875 488.152344 222.394531 487.933594 222.820312 487.714844 C 225.164062 488.894531 227.585938 489.9375 229.835938 491.277344 C 244.105469 499.761719 257.945312 509.078125 272.679688 516.652344 C 291.792969 526.480469 311.898438 526.523438 331.035156 516.683594 C 344.789062 509.613281 357.621094 500.757812 370.921875 492.792969 C 373.980469 490.960938 377.261719 489.503906 381.035156 487.574219 C 381.035156 494.933594 381.035156 501.300781 381.109375 508.003906 Z M 381.109375 508.003906 "/><path style=" stroke:none;fill-rule:nonzero;fill:#2b3c7a;fill-opacity:1;" d="M 381.589844 612.75 C 381.632812 586.457031 381.679688 560.164062 381.710938 533.871094 C 381.722656 525.644531 381.699219 517.421875 381.675781 508.652344 C 381.453125 507.960938 381.246094 507.8125 381.035156 507.664062 C 381.035156 501.300781 381.035156 494.933594 381.035156 487.574219 C 377.261719 489.503906 373.980469 490.960938 370.921875 492.792969 C 357.621094 500.757812 344.789062 509.613281 331.035156 516.683594 C 311.898438 526.523438 291.792969 526.480469 272.679688 516.652344 C 257.945312 509.078125 244.105469 499.761719 229.835938 491.277344 C 227.585938 489.9375 225.164062 488.894531 222.820312 487.714844 C 222.394531 487.933594 221.96875 488.152344 221.542969 488.371094 C 221.542969 494.664062 221.5625 500.953125 221.539062 507.246094 C 221.460938 529.25 221.324219 551.253906 221.28125 573.257812 C 221.234375 598.253906 221.320312 623.25 221.242188 648.246094 C 221.179688 668.113281 214.988281 685.792969 201.828125 700.828125 C 193.714844 710.09375 183.433594 716.042969 171.652344 719.191406 C 162.824219 721.546875 153.898438 723.964844 144.863281 725.023438 C 132.023438 726.527344 119.070312 728.136719 106.109375 725.335938 C 97.050781 723.378906 87.714844 722.457031 78.847656 719.875 C 59.699219 714.300781 43.824219 703.949219 34.835938 685.34375 C 30.675781 676.734375 27.773438 667.644531 27.714844 657.875 C 27.492188 620.804688 27.054688 583.734375 27.027344 546.664062 C 26.941406 421.933594 26.878906 297.203125 27.132812 172.476562 C 27.167969 155.785156 30.367188 139.296875 36.859375 123.785156 C 42.441406 110.460938 51.097656 99.515625 64.613281 93.316406 C 71.214844 90.289062 78.203125 88.613281 85.550781 88.433594 C 101.453125 88.042969 117.367188 86.875 133.25 87.203125 C 144.496094 87.433594 155.945312 87.167969 166.957031 90.683594 C 173.699219 92.835938 179.597656 96.394531 185.089844 100.707031 C 197.597656 110.527344 205.714844 124.039062 214.921875 136.605469 C 223.015625 147.65625 230.8125 158.925781 238.734375 170.105469 C 250.683594 186.96875 262.539062 203.902344 274.601562 220.683594 C 283.105469 232.515625 291.882812 244.148438 300.546875 255.859375 C 301.140625 256.664062 301.828125 257.398438 302.941406 258.722656 C 305.894531 254.589844 308.582031 250.890625 311.207031 247.148438 C 328.199219 222.914062 345.207031 198.683594 362.152344 174.417969 C 375.738281 154.964844 388.808594 135.132812 402.921875 116.078125 C 413.75 101.460938 428.355469 91.652344 446.664062 88.542969 C 454.042969 87.289062 461.566406 86.804688 469.046875 86.257812 C 475.480469 85.789062 481.972656 85.234375 488.390625 85.601562 C 500.984375 86.328125 513.699219 86.054688 525.875 90.628906 C 540.527344 96.136719 551.460938 105.804688 559.632812 118.886719 C 568.351562 132.84375 572.648438 148.261719 574.558594 164.460938 C 574.632812 165.097656 575.085938 165.691406 575.707031 167.066406 C 578.226562 161.183594 580.796875 156.078125 582.640625 150.722656 C 587.335938 137.101562 593.566406 124.203125 602.472656 112.957031 C 612.757812 99.976562 626.152344 91.109375 642.621094 87.804688 C 655.28125 85.261719 668.085938 84.796875 680.992188 86.109375 C 686.433594 86.664062 691.980469 86.214844 697.480469 86.222656 C 707.726562 86.234375 717.972656 86.242188 728.640625 86.453125 C 729.292969 86.71875 729.519531 86.78125 729.75 86.839844 C 739.269531 86.875 748.785156 86.90625 758.84375 86.929688 C 759.539062 86.707031 759.6875 86.496094 759.839844 86.289062 C 774.085938 86.265625 788.335938 86.234375 802.585938 86.21875 C 811.238281 86.207031 819.894531 86.367188 828.542969 86.175781 C 848.8125 85.726562 868.394531 88.964844 887.320312 96.339844 C 902.117188 102.109375 916.027344 109.390625 927.992188 119.910156 C 936.105469 127.039062 944.371094 134.132812 951.515625 142.179688 C 958.976562 150.582031 965.214844 160.074219 971.902344 169.15625 C 973.851562 171.804688 975.472656 174.695312 977.335938 177.410156 C 977.828125 178.128906 978.660156 178.617188 979.339844 179.210938 C 979.875 178.464844 980.648438 177.796875 980.910156 176.96875 C 983.972656 167.214844 986.695312 157.347656 990.015625 147.683594 C 995.796875 130.855469 1006.367188 117.402344 1019.945312 106.054688 C 1032.570312 95.503906 1047.503906 90.5 1063.296875 87.894531 C 1071.3125 86.574219 1079.574219 86.371094 1087.726562 86.296875 C 1128.800781 85.910156 1169.875 85.65625 1210.949219 85.535156 C 1224.523438 85.492188 1238.109375 85.785156 1251.675781 86.3125 C 1262.539062 86.734375 1273.464844 87.148438 1284.210938 88.660156 C 1296.742188 90.417969 1309.109375 93.085938 1321.234375 97.160156 C 1334.746094 101.699219 1347.570312 107.332031 1359.332031 115.339844 C 1378.703125 128.523438 1394.074219 145.363281 1405.308594 165.953125 C 1412.332031 178.824219 1415.898438 192.789062 1419.152344 206.996094 C 1424.859375 231.925781 1424.339844 257.160156 1424.257812 282.421875 C 1424 362.617188 1423.765625 442.8125 1423.578125 523.011719 C 1423.5625 528.652344 1424.464844 534.316406 1424.152344 539.929688 C 1423.460938 552.382812 1422.585938 564.847656 1421.21875 577.242188 C 1418.609375 600.914062 1411.460938 623.253906 1400.246094 644.257812 C 1393.773438 656.386719 1386.253906 667.789062 1377.265625 678.28125 C 1364.472656 693.210938 1349.367188 704.980469 1331.527344 713.125 C 1321.175781 717.851562 1310.367188 721.375 1298.914062 722.257812 C 1287.453125 723.140625 1275.972656 724.371094 1264.496094 724.410156 C 1204.625 724.625 1144.753906 724.675781 1084.886719 724.382812 C 1070.550781 724.3125 1056.109375 723.28125 1042.535156 717.785156 C 1025.933594 711.066406 1011.734375 701.28125 1001.152344 686.402344 C 991.730469 673.152344 986.535156 658.367188 983.320312 642.703125 C 982.507812 638.746094 982.289062 634.667969 981.714844 630.660156 C 981.53125 629.40625 981.070312 628.195312 980.417969 625.765625 C 977.125 630.75 974.59375 634.875 971.773438 638.789062 C 964.894531 648.328125 958.078125 657.925781 950.835938 667.1875 C 947.027344 672.0625 942.488281 676.390625 938.09375 680.78125 C 921.53125 697.339844 902.390625 709.980469 879.917969 716.800781 C 870.046875 719.796875 859.714844 721.835938 849.449219 722.832031 C 835.878906 724.148438 822.164062 724.394531 808.511719 724.4375 C 752.644531 724.601562 696.773438 724.609375 640.902344 724.425781 C 630.464844 724.394531 619.96875 722.9375 610.582031 718.050781 C 602.050781 713.613281 594.761719 707.652344 590.019531 698.71875 C 583.554688 686.546875 580.289062 673.5625 578.207031 660.128906 C 577.671875 656.667969 576.867188 653.253906 576.183594 649.820312 C 575.851562 649.761719 575.515625 649.707031 575.183594 649.652344 C 574.210938 652.871094 573.128906 656.0625 572.285156 659.316406 C 568.484375 673.921875 563.730469 688.148438 554.671875 700.453125 C 547.226562 710.558594 537.183594 717.171875 525.183594 720.742188 C 514.566406 723.898438 503.628906 724.453125 492.632812 724.5625 C 486.929688 724.617188 481.1875 725.5625 475.535156 725.140625 C 461.566406 724.097656 447.386719 724.984375 433.722656 720.792969 C 424.496094 717.960938 416.101562 713.660156 408.628906 707.546875 C 395.617188 696.898438 387.648438 683.117188 383.785156 666.929688 C 382.652344 662.183594 381.992188 657.246094 381.808594 652.371094 C 381.335938 639.683594 381.246094 626.976562 381.203125 613.859375 C 381.464844 613.207031 381.527344 612.980469 381.589844 612.75 M 1123.09375 245.308594 C 1123.035156 245.539062 1122.972656 245.769531 1122.8125 246.695312 C 1122.84375 272.960938 1122.878906 299.230469 1122.835938 325.890625 C 1123.042969 326.039062 1123.253906 326.191406 1123.496094 327.03125 C 1123.261719 333.574219 1123.125 340.121094 1122.765625 346.65625 C 1122.503906 351.441406 1124.125 352.960938 1128.8125 352.148438 C 1129.039062 352.210938 1129.265625 352.277344 1130.1875 352.441406 C 1161.210938 352.40625 1192.234375 352.371094 1223.640625 352.40625 C 1223.789062 352.199219 1223.9375 351.992188 1224.769531 351.753906 C 1228.460938 351.496094 1232.230469 351.632812 1235.832031 350.914062 C 1248.214844 348.449219 1257.5625 341.527344 1263.71875 330.542969 C 1267.324219 324.113281 1266.621094 316.730469 1267.421875 309.726562 C 1268.21875 302.738281 1268.503906 295.695312 1269.039062 288.679688 C 1269.835938 278.203125 1270.726562 267.78125 1268.339844 257.316406 C 1264.019531 238.34375 1248.414062 228.144531 1230.851562 226.621094 C 1221.335938 225.792969 1211.726562 225.902344 1202.160156 225.847656 C 1196.214844 225.8125 1190.265625 226.496094 1184.320312 226.457031 C 1165.476562 226.332031 1146.636719 226.007812 1127.792969 225.785156 C 1123.621094 225.734375 1122.738281 226.523438 1122.816406 230.695312 C 1122.902344 235.519531 1123.234375 240.339844 1123.09375 245.308594 M 781.890625 582.667969 C 782.042969 582.457031 782.191406 582.246094 783.03125 582.003906 C 792.191406 582.136719 801.382812 582.445312 810.269531 579.6875 C 816.972656 577.609375 824.234375 576.425781 828.191406 569.421875 C 829.511719 567.089844 831.003906 564.824219 832.664062 562.722656 C 843.277344 549.300781 852.085938 534.890625 857.234375 518.449219 C 861.835938 503.757812 866.011719 488.941406 867.714844 473.59375 C 869.414062 458.300781 871.6875 442.988281 872 427.648438 C 872.429688 406.644531 871.398438 385.601562 870.675781 364.585938 C 870.382812 356.097656 869.664062 347.574219 868.402344 339.175781 C 866.601562 327.222656 864.585938 315.261719 861.8125 303.507812 C 858.023438 287.445312 852.277344 271.972656 844.433594 257.425781 C 836.804688 243.273438 826.480469 231.789062 809.980469 228.0625 C 800.476562 225.914062 790.800781 226.011719 780.996094 226.285156 C 759.910156 226.871094 738.789062 226.332031 717.683594 226.089844 C 711.816406 226.019531 711.019531 226.523438 711.019531 232.5625 C 711.023438 345.03125 711.027344 457.503906 711.039062 569.976562 C 711.039062 572.367188 710.972656 574.765625 711.167969 577.144531 C 711.550781 581.828125 711.820312 581.992188 716.917969 582 C 723.914062 582.007812 730.914062 582.023438 738.0625 582.402344 C 738.289062 582.464844 738.519531 582.527344 739.441406 582.6875 C 753.460938 582.65625 767.480469 582.625 781.890625 582.667969 M 1190.625 456.015625 C 1169.761719 456.019531 1148.898438 456.015625 1128.035156 456.039062 C 1123.453125 456.042969 1122.761719 456.734375 1122.761719 461.082031 C 1122.757812 499.683594 1122.765625 538.289062 1122.765625 576.890625 C 1122.765625 577.515625 1122.746094 578.140625 1122.777344 578.765625 C 1122.878906 580.882812 1123.605469 582.15625 1126.125 582.027344 C 1129.738281 581.84375 1133.367188 582.007812 1136.992188 581.980469 C 1169.050781 581.734375 1201.109375 581.503906 1233.164062 581.183594 C 1235.59375 581.160156 1238.066406 580.714844 1240.433594 580.125 C 1252.144531 577.195312 1259.988281 569.636719 1265.34375 559.105469 C 1269.714844 550.507812 1270.203125 541.191406 1270.433594 531.855469 C 1270.617188 524.238281 1270.460938 516.617188 1270.46875 508.996094 C 1270.476562 498.980469 1269.425781 489.246094 1265.359375 479.851562 C 1260.960938 469.6875 1254.0625 462.613281 1243.574219 458.964844 C 1233.640625 455.507812 1223.253906 457.117188 1213.101562 456.164062 C 1205.917969 455.488281 1198.621094 456.019531 1190.625 456.015625 M 109.566406 490.125 C 109.566406 392.289062 109.566406 294.449219 109.566406 196.613281 C 109.566406 195.113281 109.585938 193.613281 109.535156 192.117188 C 109.175781 181.488281 100.625 175.503906 89.800781 178.277344 C 83.257812 179.957031 79.574219 185.691406 79.574219 193.175781 C 79.566406 334.496094 79.570312 475.816406 79.574219 617.136719 C 79.574219 618.507812 79.59375 619.882812 79.628906 621.257812 C 79.839844 628.976562 90.167969 636.359375 97.5625 634.078125 C 105.964844 631.484375 109.558594 626.605469 109.5625 617.574219 C 109.578125 575.34375 109.566406 533.109375 109.566406 490.125 M 1380.8125 491.675781 C 1385.84375 486.25 1387.394531 479.445312 1387.417969 472.476562 C 1387.578125 427.863281 1387.605469 383.246094 1387.414062 338.632812 C 1387.375 329.128906 1384.113281 320.625 1375.800781 314.992188 C 1369.695312 310.851562 1362.980469 309.699219 1355.542969 310.378906 C 1343.050781 311.515625 1332.160156 323.949219 1332.109375 334.84375 C 1331.902344 381.582031 1332.019531 428.320312 1332.144531 475.058594 C 1332.152344 478.179688 1332.589844 481.605469 1333.914062 484.371094 C 1343.378906 504.132812 1366.546875 507.351562 1380.8125 491.675781 Z M 1380.8125 491.675781 "/><path style=" stroke:none;fill-rule:nonzero;fill:#eeeeee;fill-opacity:1;" d="M 381.449219 612.851562 C 381.527344 612.980469 381.464844 613.207031 381.222656 613.511719 C 381.042969 613.339844 381.132812 613.128906 381.449219 612.851562 Z M 381.449219 612.851562 "/><path style=" stroke:none;fill-rule:nonzero;fill:#eeeeee;fill-opacity:1;" d="M 381.074219 507.835938 C 381.246094 507.8125 381.453125 507.960938 381.625 508.304688 C 381.371094 508.390625 381.210938 508.226562 381.074219 507.835938 Z M 381.074219 507.835938 "/><path style=" stroke:none;fill-rule:nonzero;fill:#ececec;fill-opacity:1;" d="M 759.667969 86.324219 C 759.6875 86.496094 759.539062 86.707031 759.195312 86.878906 C 759.109375 86.621094 759.273438 86.460938 759.667969 86.324219 Z M 759.667969 86.324219 "/><path style=" stroke:none;fill-rule:nonzero;fill:#ececec;fill-opacity:1;" d="M 729.648438 86.699219 C 729.519531 86.78125 729.292969 86.71875 728.988281 86.472656 C 729.160156 86.292969 729.371094 86.382812 729.648438 86.699219 Z M 729.648438 86.699219 "/><path style=" stroke:none;fill-rule:nonzero;fill:#ffffff;fill-opacity:1;" d="M 737.910156 582.039062 C 730.914062 582.023438 723.914062 582.007812 716.917969 582 C 711.820312 581.992188 711.550781 581.828125 711.167969 577.144531 C 710.972656 574.765625 711.039062 572.367188 711.039062 569.976562 C 711.027344 457.503906 711.023438 345.03125 711.019531 232.5625 C 711.019531 226.523438 711.816406 226.019531 717.683594 226.089844 C 738.789062 226.332031 759.910156 226.871094 780.996094 226.285156 C 790.800781 226.011719 800.476562 225.914062 809.980469 228.0625 C 826.480469 231.789062 836.804688 243.273438 844.433594 257.425781 C 852.277344 271.972656 858.023438 287.445312 861.8125 303.507812 C 864.585938 315.261719 866.601562 327.222656 868.402344 339.175781 C 869.664062 347.574219 870.382812 356.097656 870.675781 364.585938 C 871.398438 385.601562 872.429688 406.644531 872 427.648438 C 871.6875 442.988281 869.414062 458.300781 867.714844 473.59375 C 866.011719 488.941406 861.835938 503.757812 857.234375 518.449219 C 852.085938 534.890625 843.277344 549.300781 832.664062 562.722656 C 831.003906 564.824219 829.511719 567.089844 828.191406 569.421875 C 824.234375 576.425781 816.972656 577.609375 810.269531 579.6875 C 801.382812 582.445312 792.191406 582.136719 782.515625 582.058594 C 781.777344 582.214844 781.609375 582.375 781.5 582.59375 C 767.480469 582.625 753.460938 582.65625 738.992188 582.496094 C 738.367188 582.132812 738.15625 582.042969 737.910156 582.039062 Z M 737.910156 582.039062 "/><path style=" stroke:none;fill-rule:nonzero;fill:#ffffff;fill-opacity:1;" d="M 1191 456.015625 C 1198.621094 456.019531 1205.917969 455.488281 1213.101562 456.164062 C 1223.253906 457.117188 1233.640625 455.507812 1243.574219 458.964844 C 1254.0625 462.613281 1260.960938 469.6875 1265.359375 479.851562 C 1269.425781 489.246094 1270.476562 498.980469 1270.46875 508.996094 C 1270.460938 516.617188 1270.617188 524.238281 1270.433594 531.855469 C 1270.203125 541.191406 1269.714844 550.507812 1265.34375 559.105469 C 1259.988281 569.636719 1252.144531 577.195312 1240.433594 580.125 C 1238.066406 580.714844 1235.59375 581.160156 1233.164062 581.183594 C 1201.109375 581.503906 1169.050781 581.734375 1136.992188 581.980469 C 1133.367188 582.007812 1129.738281 581.84375 1126.125 582.027344 C 1123.605469 582.15625 1122.878906 580.882812 1122.777344 578.765625 C 1122.746094 578.140625 1122.765625 577.515625 1122.765625 576.890625 C 1122.765625 538.289062 1122.757812 499.683594 1122.761719 461.082031 C 1122.761719 456.734375 1123.453125 456.042969 1128.035156 456.039062 C 1148.898438 456.015625 1169.761719 456.019531 1191 456.015625 Z M 1191 456.015625 "/><path style=" stroke:none;fill-rule:nonzero;fill:#ffffff;fill-opacity:1;" d="M 1223.253906 352.335938 C 1192.234375 352.371094 1161.210938 352.40625 1129.738281 352.25 C 1129.117188 351.882812 1128.910156 351.792969 1128.664062 351.785156 C 1124.125 352.960938 1122.503906 351.441406 1122.765625 346.65625 C 1123.125 340.121094 1123.261719 333.574219 1123.445312 326.515625 C 1123.289062 325.773438 1123.128906 325.609375 1122.910156 325.5 C 1122.878906 299.230469 1122.84375 272.960938 1123.003906 246.242188 C 1123.367188 245.617188 1123.457031 245.40625 1123.460938 245.160156 C 1123.234375 240.339844 1122.902344 235.519531 1122.816406 230.695312 C 1122.738281 226.523438 1123.621094 225.734375 1127.792969 225.785156 C 1146.636719 226.007812 1165.476562 226.332031 1184.320312 226.457031 C 1190.265625 226.496094 1196.214844 225.8125 1202.160156 225.847656 C 1211.726562 225.902344 1221.335938 225.792969 1230.851562 226.621094 C 1248.414062 228.144531 1264.019531 238.34375 1268.339844 257.316406 C 1270.726562 267.78125 1269.835938 278.203125 1269.039062 288.679688 C 1268.503906 295.695312 1268.21875 302.738281 1267.421875 309.726562 C 1266.621094 316.730469 1267.324219 324.113281 1263.71875 330.542969 C 1257.5625 341.527344 1248.214844 348.449219 1235.832031 350.914062 C 1232.230469 351.632812 1228.460938 351.496094 1224.257812 351.804688 C 1223.523438 351.957031 1223.363281 352.117188 1223.253906 352.335938 Z M 1223.253906 352.335938 "/><path style=" stroke:none;fill-rule:nonzero;fill:#ffffff;fill-opacity:1;" d="M 109.566406 490.5 C 109.566406 533.109375 109.578125 575.34375 109.5625 617.574219 C 109.558594 626.605469 105.964844 631.484375 97.5625 634.078125 C 90.167969 636.359375 79.839844 628.976562 79.628906 621.257812 C 79.59375 619.882812 79.574219 618.507812 79.574219 617.136719 C 79.570312 475.816406 79.566406 334.496094 79.574219 193.175781 C 79.574219 185.691406 83.257812 179.957031 89.800781 178.277344 C 100.625 175.503906 109.175781 181.488281 109.535156 192.117188 C 109.585938 193.613281 109.566406 195.113281 109.566406 196.613281 C 109.566406 294.449219 109.566406 392.289062 109.566406 490.5 Z M 109.566406 490.5 "/><path style=" stroke:none;fill-rule:nonzero;fill:#ffffff;fill-opacity:1;" d="M 1380.648438 491.886719 C 1366.546875 507.351562 1343.378906 504.132812 1333.914062 484.371094 C 1332.589844 481.605469 1332.152344 478.179688 1332.144531 475.058594 C 1332.019531 428.320312 1331.902344 381.582031 1332.109375 334.84375 C 1332.160156 323.949219 1343.050781 311.515625 1355.542969 310.378906 C 1362.980469 309.699219 1369.695312 310.851562 1375.800781 314.992188 C 1384.113281 320.625 1387.375 329.128906 1387.414062 338.632812 C 1387.605469 383.246094 1387.578125 427.863281 1387.417969 472.476562 C 1387.394531 479.445312 1385.84375 486.25 1380.648438 491.886719 Z M 1380.648438 491.886719 "/><path style=" stroke:none;fill-rule:nonzero;fill:#eeeeee;fill-opacity:1;" d="M 781.695312 582.628906 C 781.609375 582.375 781.777344 582.214844 782.167969 582.074219 C 782.191406 582.246094 782.042969 582.457031 781.695312 582.628906 Z M 781.695312 582.628906 "/><path style=" stroke:none;fill-rule:nonzero;fill:#eeeeee;fill-opacity:1;" d="M 737.984375 582.21875 C 738.15625 582.042969 738.367188 582.132812 738.644531 582.445312 C 738.519531 582.527344 738.289062 582.464844 737.984375 582.21875 Z M 737.984375 582.21875 "/><path style=" stroke:none;fill-rule:nonzero;fill:#f1f1f1;fill-opacity:1;" d="M 1223.449219 352.371094 C 1223.363281 352.117188 1223.523438 351.957031 1223.914062 351.820312 C 1223.9375 351.992188 1223.789062 352.199219 1223.449219 352.371094 Z M 1223.449219 352.371094 "/><path style=" stroke:none;fill-rule:nonzero;fill:#f1f1f1;fill-opacity:1;" d="M 1128.738281 351.964844 C 1128.910156 351.792969 1129.117188 351.882812 1129.390625 352.199219 C 1129.265625 352.277344 1129.039062 352.210938 1128.738281 351.964844 Z M 1128.738281 351.964844 "/><path style=" stroke:none;fill-rule:nonzero;fill:#ededed;fill-opacity:1;" d="M 1122.871094 325.695312 C 1123.128906 325.609375 1123.289062 325.773438 1123.425781 326.167969 C 1123.253906 326.191406 1123.042969 326.039062 1122.871094 325.695312 Z M 1122.871094 325.695312 "/><path style=" stroke:none;fill-rule:nonzero;fill:#ededed;fill-opacity:1;" d="M 1123.277344 245.234375 C 1123.457031 245.40625 1123.367188 245.617188 1123.050781 245.894531 C 1122.972656 245.769531 1123.035156 245.539062 1123.277344 245.234375 Z M 1123.277344 245.234375 "/></g></svg>